<svg width="20" height="20" viewBox="0 0 20 20" fill="none" xmlns="http://www.w3.org/2000/svg">
<path d="M14.9402 4.88833C17.6906 7.58819 17.6906 11.9655 14.9402 14.6654C12.1898 17.3652 7.73049 17.3652 4.98007 14.6654C2.22965 11.9655 2.22965 7.58819 4.98007 4.88833C7.73049 2.18847 12.1898 2.18847 14.9402 4.88833Z" fill="#57BFD8"/>
<path d="M4.97997 4.88842C2.22962 7.58822 2.22978 11.9656 4.97997 14.6653C7.73017 17.3649 12.1898 17.3653 14.9401 14.6655C17.6905 11.9657 17.6904 7.588 14.9401 4.88823C12.1898 2.18846 7.73036 2.1886 4.97997 4.88842ZM10.7052 5.75137L10.6479 7.80933L14.0811 9.8391L14.0811 10.6389L10.6518 9.83176L10.5917 9.83176L10.5204 12.3942C10.5205 12.4092 10.5178 12.4232 10.5172 12.4379L11.453 13.4409L8.4673 13.4411L9.40281 12.4384C9.40211 12.4235 9.39952 12.4095 9.39952 12.3944L9.32827 9.83194L9.30655 9.83181L5.83929 10.6391L5.83929 9.83931L9.27284 7.83414L9.21483 5.75141C9.21483 5.34722 9.54857 5.01975 9.9601 5.01985C10.3716 5.01987 10.7052 5.34734 10.7052 5.75137Z" fill="white"/>
</svg>
