<svg width="73" height="99" viewBox="0 0 73 99" fill="none" xmlns="http://www.w3.org/2000/svg">
<path d="M36.4458 0C16.3506 0 0 16.3506 0 36.4478C0 41.69 1.07295 46.695 3.18744 51.3252C12.2999 71.2654 29.771 92.3181 34.9098 98.2948C35.2948 98.7416 35.8561 98.999 36.4468 98.999C37.0375 98.999 37.5988 98.7416 37.9838 98.2948C43.1206 92.3191 60.5917 71.2675 69.7072 51.3252C71.8227 46.695 72.8946 41.69 72.8946 36.4478C72.8926 16.3506 56.542 0 36.4458 0ZM36.4458 55.3789C26.0071 55.3789 17.5137 46.8855 17.5137 36.4468C17.5137 26.0071 26.0071 17.5137 36.4458 17.5137C46.8845 17.5137 55.3779 26.0071 55.3779 36.4468C55.3789 46.8855 46.8855 55.3789 36.4458 55.3789Z" fill="#43426B"/>
</svg>
