<svg width="18" height="21" viewBox="0 0 18 21" fill="none" xmlns="http://www.w3.org/2000/svg">
<path d="M0.428019 3.64805C0.713167 3.36531 1.05148 3.22392 1.44208 3.22392H2.88424V2.15246C2.88424 1.66148 3.06093 1.24106 3.41396 0.891362C3.76719 0.541659 4.19142 0.36673 4.68736 0.36673H5.40834C5.90424 0.36673 6.32863 0.541659 6.6817 0.891401C7.03489 1.24106 7.21143 1.66152 7.21143 2.15249V3.22396H10.7882V2.15249C10.7882 1.66152 10.9648 1.2411 11.3179 0.891401C11.6709 0.541659 12.0954 0.36673 12.5913 0.36673H13.3124C13.8081 0.36673 14.2326 0.541659 14.5857 0.891401C14.9388 1.24106 15.1154 1.66152 15.1154 2.15249V3.22396H16.5576C16.9483 3.22396 17.2863 3.36535 17.5718 3.64809C17.8572 3.93079 18 4.26572 18 4.6526V18.9383C18 19.3249 17.8572 19.6597 17.5718 19.9426C17.2864 20.2253 16.9484 20.3667 16.5576 20.3667H1.44236C1.05175 20.3667 0.713404 20.2253 0.428295 19.9426C0.142792 19.6599 0 19.3249 0 18.9383V4.65256C4.00543e-05 4.26556 0.142673 3.93079 0.428019 3.64805ZM5.76891 2.15261C5.76891 2.04836 5.7354 1.96271 5.66788 1.89591C5.60035 1.82902 5.51392 1.79552 5.40858 1.79552H4.6876C4.58222 1.79552 4.49607 1.8289 4.4283 1.89591C4.36073 1.96283 4.32699 2.04848 4.32699 2.15261V5.36678C4.32699 5.47099 4.36073 5.55648 4.4283 5.62349C4.49611 5.69029 4.58222 5.72387 4.6876 5.72387H5.40858C5.51392 5.72387 5.60035 5.69045 5.66788 5.62349C5.7354 5.55645 5.76891 5.47099 5.76891 5.36678V2.15261ZM13.6729 2.15261C13.6729 2.04836 13.6391 1.96271 13.5715 1.89591C13.5039 1.82902 13.4176 1.79552 13.3124 1.79552H12.5913C12.486 1.79552 12.3995 1.8289 12.3321 1.89591C12.2646 1.96283 12.2307 2.04848 12.2307 2.15261V5.36678C12.2307 5.47099 12.2644 5.5566 12.3321 5.62349C12.3997 5.69029 12.486 5.72387 12.5913 5.72387H13.3124C13.4176 5.72387 13.504 5.69045 13.5715 5.62349C13.639 5.55645 13.6729 5.47099 13.6729 5.36678V2.15261ZM2 18.3667H16V7.50963H2V18.3667Z" fill="#B6C6D6"/>
<rect x="8" y="11.3667" width="6" height="5" rx="0.5" fill="#B6C6D6"/>
</svg>
