<svg width="20" height="21" viewBox="0 0 20 21" fill="none" xmlns="http://www.w3.org/2000/svg">
<path d="M7.00002 10.1168C6.31002 10.1168 5.75 10.6768 5.75 11.3668C5.75 12.0568 6.31002 12.6168 7.00002 12.6168C7.69002 12.6168 8.25004 12.0568 8.25004 11.3668C8.25004 10.6768 7.69002 10.1168 7.00002 10.1168Z" fill="#B6C6D6"/>
<path d="M10 0.36673C4.47502 0.36673 0 4.84175 0 10.3667C0 15.8917 4.47502 20.3667 10 20.3667C15.525 20.3667 20 15.8918 20 10.3667C20 4.84171 15.525 0.36673 10 0.36673ZM10 18.3668C5.58999 18.3668 1.99997 14.7767 1.99997 10.3667C1.99997 10.0767 2.01999 9.79171 2.04999 9.51173C4.40499 8.46674 6.28501 6.53671 7.26001 4.14172C9.07 6.69172 12.045 8.36671 15.415 8.36671C16.19 8.36671 16.945 8.2717 17.665 8.10173C17.88 8.82173 18 9.58171 18 10.3667C18 14.7767 14.41 18.3668 10 18.3668Z" fill="#B6C6D6"/>
<path d="M13 10.1168C12.31 10.1168 11.75 10.6768 11.75 11.3668C11.75 12.0568 12.31 12.6168 13 12.6168C13.69 12.6168 14.25 12.0568 14.25 11.3668C14.25 10.6768 13.69 10.1168 13 10.1168Z" fill="#B6C6D6"/>
</svg>
