<svg width="16" height="16" viewBox="0 0 16 16" fill="none" xmlns="http://www.w3.org/2000/svg">
<path d="M14.4124 3.83161H2.49988C2.22363 3.83161 1.99988 3.59865 1.99988 3.31103C1.99988 3.02341 2.22363 2.79045 2.49988 2.79045H14.4999C14.7761 2.79045 14.9999 2.55749 14.9999 2.26987C14.9999 1.40733 14.3283 0.70813 13.4999 0.70813H1.99988C0.89519 0.70813 -0.00012207 1.64029 -0.00012207 2.79045V13.2021C-0.00012207 14.3522 0.89519 15.2844 1.99988 15.2844H14.4124C15.288 15.2844 15.9999 14.5839 15.9999 13.7227V5.39336C15.9999 4.53212 15.288 3.83161 14.4124 3.83161ZM12.9999 10.5992C12.4477 10.5992 11.9999 10.1329 11.9999 9.558C11.9999 8.98309 12.4477 8.51684 12.9999 8.51684C13.5521 8.51684 13.9999 8.98309 13.9999 9.558C13.9999 10.1329 13.5521 10.5992 12.9999 10.5992Z" fill="#B6C6D6"/>
</svg>
