<svg width="16" height="16" viewBox="0 0 16 16" fill="none" xmlns="http://www.w3.org/2000/svg">
<path d="M10.6847 1.83065C8.24382 -0.610217 4.27112 -0.610217 1.83025 1.83065C-0.610085 4.27205 -0.610085 8.24422 1.83025 10.6856C4.00391 12.8587 7.38928 13.0916 9.82856 11.3946C9.87988 11.6375 9.99735 11.8693 10.1862 12.0582L13.7409 15.6129C14.2589 16.1298 15.096 16.1298 15.6114 15.6129C16.1289 15.0954 16.1289 14.2583 15.6114 13.7424L12.0567 10.1866C11.8689 9.99933 11.6366 9.88134 11.3937 9.83001C13.0917 7.3902 12.8589 4.00537 10.6847 1.83065ZM9.56241 9.56333C7.74009 11.3856 4.77432 11.3856 2.95254 9.56333C1.13128 7.74101 1.13128 4.77578 2.95254 2.95346C4.77432 1.13167 7.74009 1.13167 9.56241 2.95346C11.3847 4.77578 11.3847 7.74101 9.56241 9.56333Z" fill="#9B9B9B"/>
</svg>
