<svg width="18" height="21" viewBox="0 0 18 21" fill="none" xmlns="http://www.w3.org/2000/svg">
<path fill-rule="evenodd" clip-rule="evenodd" d="M9.08911 20.3885C9.08911 20.3885 17.5891 15.3831 17.5891 8.86673C17.5891 4.17231 13.7835 0.36673 9.08911 0.36673C4.39469 0.36673 0.589111 4.17231 0.589111 8.86673C0.589111 15.1966 8.61848 20.1009 9.06939 20.3763C9.08267 20.3844 9.08938 20.3885 9.08911 20.3885ZM6.27615 11.6797C7.8297 13.2332 10.3485 13.2332 11.9021 11.6797C13.4556 10.1261 13.4556 7.60732 11.9021 6.05377C10.3485 4.50022 7.8297 4.50022 6.27615 6.05377C4.7226 7.60732 4.7226 10.1261 6.27615 11.6797Z" fill="#B6C6D6"/>
</svg>
