<svg width="74" height="74" viewBox="0 0 74 74" fill="none" xmlns="http://www.w3.org/2000/svg">
<path d="M67.8333 0H6.16667C2.76637 0 0 2.76637 0 6.16667V53.0333V55.5C0 58.9003 2.76637 61.6667 6.16667 61.6667H29.6V66.6H23.4333C20.033 66.6 17.2667 69.3664 17.2667 72.7667C17.2667 73.4475 17.8192 74 18.5 74H55.5C56.1808 74 56.7333 73.4475 56.7333 72.7667C56.7333 69.3664 53.967 66.6 50.5667 66.6H44.4V61.6667H67.8333C71.2336 61.6667 74 58.9003 74 55.5V53.0333V6.16667C74 2.76637 71.2336 0 67.8333 0ZM50.5667 69.0667C52.1749 69.0667 53.5464 70.0977 54.0558 71.5333H19.9442C20.4536 70.0977 21.8251 69.0667 23.4333 69.0667H30.8333H43.1667H50.5667ZM32.0667 66.6V61.6667H41.9333V66.6H32.0667ZM71.5333 55.5C71.5333 57.5399 69.8733 59.2 67.8333 59.2H43.1667H30.8333H6.16667C4.12673 59.2 2.46667 57.5399 2.46667 55.5V54.2667H71.5333V55.5ZM71.5333 51.8H2.46667V6.16667C2.46667 4.12673 4.12673 2.46667 6.16667 2.46667H67.8333C69.8733 2.46667 71.5333 4.12673 71.5333 6.16667V51.8Z" fill="#23224D"/>
<path d="M53.0334 18.5001H50.5667C49.2064 18.5001 48.1001 19.6064 48.1001 20.9668V22.2001H34.5334V19.7334C34.5334 18.3731 33.4271 17.2668 32.0667 17.2668H27.1334V13.5668C27.1334 12.2064 26.0271 11.1001 24.6667 11.1001H22.2001C20.8397 11.1001 19.7334 12.2064 19.7334 13.5668V32.0668C19.7334 32.7476 20.2859 33.3001 20.9667 33.3001H25.9001C26.5809 33.3001 27.1334 32.7476 27.1334 32.0668V29.6001H48.1001V32.0668C48.1001 32.7476 48.6526 33.3001 49.3334 33.3001H54.2667C54.9475 33.3001 55.5001 32.7476 55.5001 32.0668V20.9668C55.5001 19.6064 54.3938 18.5001 53.0334 18.5001ZM27.1334 19.7334H32.0667V22.2001H27.1334V19.7334ZM53.0334 30.8334H50.5667V28.3668C50.5667 27.686 50.0142 27.1334 49.3334 27.1334H25.9001C25.2193 27.1334 24.6667 27.686 24.6667 28.3668V30.8334H22.2001V13.5668H24.6667V18.5001V23.4334C24.6667 24.1142 25.2193 24.6668 25.9001 24.6668H33.3001H49.3334C50.0142 24.6668 50.5667 24.1142 50.5667 23.4334V20.9668H53.0334V30.8334Z" fill="#23224D"/>
<path d="M43.1666 35.7666H30.8333C28.7934 35.7666 27.1333 37.4267 27.1333 39.4666V41.9333C27.1333 43.9732 28.7934 45.6333 30.8333 45.6333H43.1666C45.2066 45.6333 46.8666 43.9732 46.8666 41.9333V39.4666C46.8666 37.4267 45.2066 35.7666 43.1666 35.7666ZM44.4 41.9333C44.4 42.6128 43.8462 43.1666 43.1666 43.1666H30.8333C30.1537 43.1666 29.6 42.6128 29.6 41.9333V39.4666C29.6 38.787 30.1537 38.2333 30.8333 38.2333H43.1666C43.8462 38.2333 44.4 38.787 44.4 39.4666V41.9333Z" fill="#23224D"/>
<path d="M58.4773 43.1665L61.3053 40.3384C61.6198 40.0239 61.7407 39.5651 61.6223 39.1372C61.5039 38.7092 61.1635 38.3774 60.7331 38.2701L50.8664 35.8035C50.4458 35.6986 50.0018 35.8207 49.6947 36.1278C49.3876 36.4349 49.2655 36.8789 49.3704 37.2995L51.837 47.1662C51.9443 47.5978 52.2761 47.937 52.7041 48.0554C52.8126 48.085 52.9236 48.0998 53.0334 48.0998C53.3565 48.0998 53.671 47.9728 53.9053 47.7384L56.7334 44.9104L62.0281 50.2051L63.772 48.4612L58.4773 43.1665ZM53.7018 44.4541L52.2625 38.6956L58.021 40.1349L53.7018 44.4541Z" fill="#23224D"/>
<path d="M38.2333 14.8003H35.7666V17.267H38.2333V14.8003Z" fill="#23224D"/>
<path d="M37.0001 9.8667C34.8541 9.8667 33.2976 10.7942 32.5601 11.3467L34.0401 13.32C34.5309 12.9525 35.5694 12.3334 37.0001 12.3334C37.6143 12.3334 38.8155 12.4616 39.9601 13.32L41.4401 11.3467C39.7233 10.0591 37.9214 9.8667 37.0001 9.8667Z" fill="#23224D"/>
<path d="M37.0001 4.93311C33.326 4.93311 30.8692 6.89657 29.9824 7.74017L31.6844 9.52604C32.3554 8.88717 34.2165 7.39977 37.0001 7.39977C37.9276 7.39977 40.3005 7.60697 42.317 9.52604L44.0178 7.74017C41.3575 5.20691 38.2236 4.93311 37.0001 4.93311Z" fill="#23224D"/>
<path d="M64.1337 23.4331H61.667V25.8998H64.1337V23.4331Z" fill="#23224D"/>
<path d="M64.1337 16.0332H61.667V20.9665H64.1337V16.0332Z" fill="#23224D"/>
<path d="M64.1337 7.3999H61.667V13.5666H64.1337V7.3999Z" fill="#23224D"/>
<path d="M12.3334 23.4331H9.8667V25.8998H12.3334V23.4331Z" fill="#23224D"/>
<path d="M12.3334 16.0332H9.8667V20.9665H12.3334V16.0332Z" fill="#23224D"/>
<path d="M12.3334 7.3999H9.8667V13.5666H12.3334V7.3999Z" fill="#23224D"/>
</svg>
